<?xml version="1.0" standalone="no"?>
<!DOCTYPE svg PUBLIC "-//W3C//DTD SVG 20010904//EN"
 "http://www.w3.org/TR/2001/REC-SVG-20010904/DTD/svg10.dtd">
<svg version="1.0" xmlns="http://www.w3.org/2000/svg"
 width="160.000000pt" height="160.000000pt" viewBox="0 0 160.000000 160.000000"
 preserveAspectRatio="xMidYMid meet">
<metadata>
Created by potrace 1.14, written by Peter Selinger 2001-2017
</metadata>
<g transform="translate(0.000000,160.000000) scale(0.100000,-0.100000)"
fill="#000000" stroke="none">
<path d="M680 1593 c-32 -5 -129 -31 -155 -42 -34 -14 -129 -60 -150 -73 -122
-77 -245 -218 -300 -343 -9 -22 -21 -49 -26 -60 -41 -97 -58 -297 -34 -422 63
-325 327 -587 645 -640 84 -14 261 -8 334 11 266 71 475 264 562 520 14 39 24
72 24 74 0 1 0 3 1 5 18 59 20 262 3 336 -35 149 -105 285 -201 388 -111 119
-242 192 -423 236 -52 13 -225 19 -280 10z"/>
</g>
</svg>
